<svg xmlns="http://www.w3.org/2000/svg" viewBox="0 0 64 64">
  <rect width="64" height="64" rx="14" fill="#141a23"/>
  <g transform="translate(6 2.5) scale(0.83)">
    <circle cx="32" cy="18" r="12" fill="#7bc47f"/>
    <ellipse cx="32" cy="31" rx="10" ry="2.6" fill="#7bc47f"/>
    <path d="M25 32 C21 39 19 46 17 51 L47 51 C45 46 43 39 39 32 Z" fill="#7bc47f"/>
    <rect x="12" y="51" width="40" height="8" rx="3.5" fill="#7bc47f"/>
    <g fill="#141a23">
      <circle cx="27.5" cy="17.5" r="1.5"/><circle cx="36.5" cy="17.5" r="1.5"/>
    </g>
    <g fill="none" stroke="#141a23" stroke-width="1.5" stroke-linecap="round">
      <circle cx="27.5" cy="17.5" r="4.1"/><circle cx="36.5" cy="17.5" r="4.1"/>
      <path d="M31.6 16.9 L32.4 16.9"/><path d="M23.4 16.9 L21.2 16.4"/><path d="M40.6 16.9 L42.8 16.4"/>
      <path d="M27.2 23 Q32 26.6 36.8 23"/>
    </g>
  </g>
</svg>
